<svg xmlns="http://www.w3.org/2000/svg" version="1.0" width="1280.000000pt" height="640.000000pt" viewBox="0 0 1280.000000 640.000000" preserveAspectRatio="xMidYMid meet">
<metadata>
Created by potrace 1.15, written by Peter Selinger 2001-2017
</metadata>
<g transform="translate(0.000000,640.000000) scale(0.100000,-0.100000)" fill="#000000" stroke="none">
<path d="M7290 5339 c-471 -17 -780 -52 -1015 -114 -183 -48 -451 -139 -558 -188 -135 -62 -783 -464 -1227 -760 -123 -83 -249 -163 -280 -178 -124 -61 -224 -80 -520 -100 -96 -6 -200 -17 -230 -24 -30 -7 -80 -16 -110 -19 -1353 -142 -1874 -226 -2338 -376 -177 -57 -580 -232 -697 -302 -112 -67 -244 -166 -263 -198 -28 -45 -43 -149 -49 -325 l-5 -180 52 -205 c69 -273 70 -361 5 -635 -13 -55 -26 -121 -30 -147 -7 -45 -6 -47 26 -65 31 -17 66 -18 461 -18 l427 0 31 30 c17 16 33 40 36 52 4 13 9 23 13 23 3 -1 22 -27 41 -58 45 -73 208 -237 285 -287 364 -237 817 -242 1173 -12 116 75 235 192 305 299 l30 48 3236 0 3236 0 39 -62 c51 -80 160 -195 245 -257 207 -153 452 -230 701 -218 387 19 726 233 906 571 44 82 94 211 94 241 0 20 25 19 95 -5 68 -23 228 -27 460 -10 427 32 607 120 719 352 97 202 126 421 146 1108 8 292 10 323 36 425 37 154 39 291 5 355 -14 25 -27 65 -30 90 l-6 45 -190 -3 c-425 -8 -921 79 -1295 228 -52 20 -189 81 -305 135 -396 184 -658 292 -1084 446 -581 211 -924 266 -1861 299 -321 11 -401 11 -710 -1z m-5165 -2419 c67 -18 96 -32 93 -44 -2 -6 -74 -151 -160 -322 l-158 -312 -187 60 c-104 32 -259 82 -346 109 l-158 50 38 71 c47 88 163 213 253 273 77 52 179 96 260 113 30 6 64 14 75 16 34 8 248 -2 290 -14z m8264 9 c112 -18 262 -80 338 -139 l22 -17 -141 -149 c-78 -82 -190 -199 -250 -261 l-109 -112 -287 196 c-158 108 -291 200 -297 204 -13 13 76 101 155 154 92 61 223 112 330 128 52 9 178 6 239 -4z m-8055 -93 c116 -66 222 -171 295 -290 74 -123 119 -319 106 -461 -6 -64 -42 -225 -51 -225 -3 0 -634 320 -642 325 -1 1 45 151 103 332 58 182 105 336 105 342 0 18 20 13 84 -23z m8487 -123 c103 -110 165 -214 205 -348 46 -157 38 -355 -23 -509 -28 -72 -101 -198 -113 -194 -15 6 -521 491 -518 498 9 19 403 590 408 590 3 0 22 -17 41 -37z m-873 -383 c124 -118 201 -199 198 -207 -6 -15 -356 -528 -384 -563 l-17 -22 -54 55 c-138 141 -209 304 -218 505 -9 182 29 335 118 472 l40 63 57 -55 c31 -30 148 -141 260 -248z m-8109 -226 c7 -6 -213 -684 -222 -684 -6 0 -38 15 -71 34 -180 101 -324 293 -376 501 -34 133 -25 331 19 447 l10 28 318 -162 c175 -89 320 -163 322 -164z m540 -184 c156 -49 286 -92 289 -94 8 -9 -67 -131 -121 -197 -96 -116 -254 -215 -407 -256 -92 -25 -300 -24 -398 1 -40 10 -75 22 -78 27 -3 5 68 152 158 328 l163 318 55 -18 c30 -10 183 -59 339 -109z m8141 -50 c124 -84 254 -173 288 -198 l64 -44 -34 -35 c-87 -90 -223 -172 -358 -215 -64 -20 -96 -23 -215 -23 -103 0 -157 5 -205 18 -76 21 -212 85 -254 120 l-30 24 249 261 c154 162 253 258 259 253 6 -4 112 -77 236 -161z"/>
</g>
<style xmlns="" class="darkreader darkreader--fallback">html, body, body :not(iframe) {
    background-color: #181a1b !important;
    border-color: #776e62 !important;
    color: #e8e6e3 !important;
}</style></svg>